<svg width="32" height="33" viewBox="0 0 32 33" fill="none" xmlns="http://www.w3.org/2000/svg">
<path d="M29.6034 6.51044H2.39656C1.07294 6.51044 0 7.5835 0 8.90727V25.0816C0 26.4053 1.07294 27.4784 2.39656 27.4784H29.6034C30.927 27.4784 32 26.4054 32 25.0816V8.90727C32 7.5835 30.9271 6.51044 29.6034 6.51044Z" fill="#41479B"/>
<path d="M0.55175 16.9944H1.51013L6.62075 13.6456V16.9944H9.37938V13.6456L14.4899 16.9944H15.4483C15.753 16.9944 16.0001 16.7473 16.0001 16.4426V16.0049L11.6154 13.1319H16V10.3729H11.6153L16 7.49992V7.06225C16 6.75746 15.7529 6.51044 15.4482 6.51044H14.4899L9.37925 9.85919V6.51044H6.62063V9.85919L1.67775 6.62032C1.10063 6.80159 0.618125 7.19558 0.320812 7.71007L4.38475 10.3729H0V13.1319H4.38469L0 16.0049V16.4426C0 16.7473 0.246938 16.9944 0.55175 16.9944Z" fill="#F5F5F5"/>
<path d="M16 10.9247H8.82756V6.51044H7.17244V10.9247H0V12.5801H7.17244V16.9944H8.82756V12.5801H16V10.9247Z" fill="#FF4B55"/>
<path d="M0.514648 7.42457L5.05602 10.3725H6.0694L0.913398 7.02563C0.765336 7.14251 0.631523 7.27645 0.514648 7.42457Z" fill="#FF4B55"/>
<path d="M10.3923 10.3725L15.9157 6.78712C15.8197 6.62469 15.6503 6.51044 15.4478 6.51044H15.3285L9.37891 10.3725H10.3923Z" fill="#FF4B55"/>
<path d="M5.59191 13.1312L0.0791016 16.7097C0.174164 16.8761 0.346164 16.9933 0.551539 16.9933H0.655602L6.60535 13.1312H5.59191Z" fill="#FF4B55"/>
<path d="M15.9915 16.485L10.8249 13.1313H9.81152L15.6787 16.9398C15.8544 16.8582 15.975 16.6873 15.9915 16.485Z" fill="#FF4B55"/>
<path d="M8.16729 20.0024L8.58372 21.3775L9.91829 20.8458C10.0322 20.8004 10.1357 20.9303 10.0662 21.0312L9.25091 22.2142L10.4985 22.9263C10.605 22.9871 10.568 23.149 10.4458 23.1576L9.01272 23.2577L9.23404 24.6773C9.25291 24.7985 9.10329 24.8705 9.02041 24.7802L8.04866 23.722L7.07691 24.7802C6.99404 24.8705 6.84441 24.7984 6.86329 24.6773L7.0846 23.2577L5.65154 23.1576C5.52929 23.149 5.49229 22.9871 5.59879 22.9263L6.84641 22.2142L6.03116 21.0312C5.96166 20.9303 6.06516 20.8004 6.17904 20.8458L7.5136 21.3775L7.93004 20.0024C7.96572 19.885 8.13179 19.885 8.16729 20.0024Z" fill="#F5F5F5"/>
<path d="M24.5804 10.2261L24.7838 10.8977L25.4357 10.6381C25.4913 10.6159 25.5419 10.6793 25.5079 10.7286L25.1097 11.3064L25.7191 11.6542C25.7711 11.6839 25.7531 11.763 25.6933 11.7671L24.9933 11.816L25.1014 12.5093C25.1106 12.5685 25.0375 12.6037 24.997 12.5596L24.5223 12.0427L24.0476 12.5596C24.0071 12.6036 23.9341 12.5684 23.9433 12.5093L24.0513 11.816L23.3513 11.7671C23.2916 11.7629 23.2735 11.6839 23.3255 11.6542L23.9349 11.3064L23.5368 10.7286C23.5028 10.6793 23.5534 10.6159 23.6089 10.6381L24.2609 10.8977L24.4643 10.2261C24.4819 10.1687 24.5631 10.1687 24.5804 10.2261Z" fill="#F5F5F5"/>
<path d="M20.0441 15.382L20.2475 16.0536L20.8994 15.794C20.955 15.7719 21.0056 15.8352 20.9716 15.8845L20.5734 16.4624L21.1829 16.8102C21.2349 16.8398 21.2168 16.9189 21.1571 16.923L20.4571 16.9719L20.5652 17.6652C20.5744 17.7244 20.5013 17.7596 20.4608 17.7155L19.9861 17.1987L19.5114 17.7155C19.4709 17.7595 19.3979 17.7244 19.4071 17.6652L19.5152 16.9719L18.8152 16.923C18.7554 16.9189 18.7374 16.8398 18.7894 16.8102L19.3988 16.4624L19.0006 15.8845C18.9666 15.8352 19.0173 15.7719 19.0728 15.794L19.7248 16.0536L19.9282 15.382C19.9456 15.3247 20.0267 15.3247 20.0441 15.382Z" fill="#F5F5F5"/>
<path d="M28.8721 13.1739L29.0756 13.8455L29.7275 13.5858C29.7831 13.5637 29.8337 13.6271 29.7997 13.6764L29.4015 14.2542L30.0109 14.602C30.0629 14.6317 30.0449 14.7108 29.9851 14.7149L29.2851 14.7638L29.3933 15.4571C29.4025 15.5163 29.3294 15.5515 29.2889 15.5073L28.8142 14.9905L28.3395 15.5073C28.299 15.5514 28.2259 15.5162 28.2352 15.4571L28.3433 14.7638L27.6433 14.7149C27.5836 14.7107 27.5655 14.6317 27.6175 14.602L28.2269 14.2542L27.8288 13.6764C27.7948 13.6271 27.8454 13.5637 27.9009 13.5858L28.5529 13.8455L28.7563 13.1739C28.7736 13.1167 28.8548 13.1167 28.8721 13.1739Z" fill="#F5F5F5"/>
<path d="M24.5804 22.0028L24.7838 22.6743L25.4357 22.4147C25.4913 22.3925 25.5419 22.4559 25.5079 22.5052L25.1097 23.083L25.7191 23.4308C25.7711 23.4605 25.7531 23.5396 25.6933 23.5437L24.9933 23.5926L25.1014 24.2859C25.1106 24.3451 25.0375 24.3803 24.997 24.3361L24.5223 23.8193L24.0476 24.3361C24.0071 24.3802 23.9341 24.345 23.9433 24.2859L24.0513 23.5926L23.3513 23.5437C23.2916 23.5396 23.2735 23.4605 23.3255 23.4308L23.9349 23.083L23.5368 22.5052C23.5028 22.4559 23.5534 22.3925 23.6089 22.4147L24.2609 22.6743L24.4643 22.0028C24.4819 21.9455 24.5631 21.9455 24.5804 22.0028Z" fill="#F5F5F5"/>
<path d="M26.1539 16.589L25.9906 17.0787L25.4744 17.0827C25.4076 17.0833 25.3799 17.1685 25.4337 17.2082L25.8489 17.5149L25.6932 18.0071C25.673 18.0709 25.7456 18.1235 25.7999 18.0847L26.2199 17.7845L26.6399 18.0847C26.6943 18.1235 26.7668 18.0708 26.7467 18.0071L26.5909 17.5149L27.0062 17.2082C27.06 17.1685 27.0323 17.0833 26.9655 17.0827L26.4493 17.0787L26.286 16.589C26.2647 16.5256 26.175 16.5256 26.1539 16.589Z" fill="#F5F5F5"/>
</svg>
