<svg width="32" height="33" viewBox="0 0 32 33" fill="none" xmlns="http://www.w3.org/2000/svg">
<path d="M2.39656 5.51905H29.6034C30.9271 5.51905 32 6.59211 32 7.91588V24.0902C32 25.4139 30.9271 26.487 29.6034 26.487H2.39656C1.073 26.487 0 25.4139 0 24.0902V7.91588C0 6.59211 1.07294 5.51905 2.39656 5.51905Z" fill="#41479B"/>
<path d="M0.0331879 7.5189C0.222063 6.38383 1.208 5.51823 2.39656 5.51823H3.02012L13.2414 12.2157V5.5183H18.7586V12.2157L28.9799 5.5183H29.6034C30.792 5.5183 31.7779 6.38383 31.9668 7.51896L23.2307 13.2434H32V18.7612H23.2307L31.9668 24.4855C31.7779 25.6206 30.792 26.4862 29.6034 26.4862H28.9799L18.7586 19.7887V26.4862H13.2414V19.7887L3.02012 26.4862H2.39656C1.208 26.4862 0.222063 25.6206 0.0331879 24.4855L8.76931 18.7611H0V13.2432H8.76931L0.0331879 7.5189Z" fill="#F5F5F5"/>
<path d="M14.3448 5.51905H17.6552V14.3476H32V17.6584H17.6552V26.4869H14.3448V17.6584H0V14.3476H14.3448V5.51905Z" fill="#FF4B55"/>
<path d="M30.4498 26.3328L18.7883 18.7615H20.8151L31.4229 25.6488C31.1633 25.9518 30.8297 26.1892 30.4498 26.3328Z" fill="#FF4B55"/>
<path d="M10.3512 18.7615H12.3779L1.08318 26.0947C0.767119 25.8871 0.503368 25.6067 0.315243 25.2774L10.3512 18.7615Z" fill="#FF4B55"/>
<path d="M31.748 6.84389L21.8899 13.2445H19.8632L31.0339 5.99163C31.3339 6.21493 31.5793 6.50687 31.748 6.84389Z" fill="#FF4B55"/>
<path d="M11.2145 13.2444L0.587271 6.34442C0.849709 6.04242 1.1859 5.80636 1.56846 5.66552L13.2412 13.2444H11.2145Z" fill="#FF4B55"/>
</svg>
