<svg width="32" height="33" viewBox="0 0 32 33" fill="none" xmlns="http://www.w3.org/2000/svg">
<path d="M29.6034 6.51424H2.39656C1.07294 6.51424 0 7.58717 0 8.9108V25.0832C0 26.4068 1.07294 27.4798 2.39656 27.4798H29.6034C30.927 27.4798 32 26.4069 32 25.0832V8.9108C32 7.58717 30.9271 6.51424 29.6034 6.51424Z" fill="#F5F5F5"/>
<path d="M0.131836 8.12699H31.8681C31.5434 7.18842 30.6524 6.51424 29.6035 6.51424H2.39659C1.34759 6.51424 0.456648 7.18842 0.131836 8.12699Z" fill="#FF4B55"/>
<path d="M32 12.9651H0V14.5778H32V12.9651Z" fill="#FF4B55"/>
<path d="M32 9.7395H0V11.3522H32V9.7395Z" fill="#FF4B55"/>
<path d="M0 17.2516C0 17.5563 0.247063 17.8034 0.55175 17.8034H32V16.1906H0V17.2516Z" fill="#FF4B55"/>
<path d="M32 22.6421H0V24.2548H32V22.6421Z" fill="#FF4B55"/>
<path d="M31.8682 25.8671H0.131836C0.456648 26.8057 1.34765 27.4799 2.39659 27.4799H29.6035C30.6525 27.4799 31.5434 26.8057 31.8682 25.8671Z" fill="#FF4B55"/>
<path d="M32 19.4163H0V21.0289H32V19.4163Z" fill="#FF4B55"/>
<path d="M0.55175 17.8033H14.3449C14.6496 17.8033 14.8966 17.5563 14.8966 17.2516V7.06588C14.8966 6.76113 14.6496 6.51413 14.3449 6.51413H2.39656C1.07294 6.51419 0 7.58713 0 8.91076V17.2516C0 17.5563 0.247063 17.8033 0.55175 17.8033Z" fill="#41479B"/>
<path d="M1.54915 7.78057L1.67127 8.14682L2.05733 8.14976C2.10733 8.1502 2.12802 8.21395 2.08783 8.24364L1.77727 8.47295L1.89377 8.84101C1.9089 8.88864 1.85458 8.92814 1.8139 8.89901L1.49983 8.67457L1.18577 8.89907C1.14508 8.9282 1.0909 8.8887 1.1059 8.84107L1.2224 8.47301L0.911835 8.2437C0.871647 8.21395 0.892335 8.1502 0.942335 8.14982L1.3284 8.14689L1.45052 7.78064C1.46627 7.73314 1.53327 7.73314 1.54915 7.78057Z" fill="#F5F5F5"/>
<path d="M1.54915 9.69624L1.67127 10.0625L2.05733 10.0654C2.10733 10.0659 2.12802 10.1296 2.08783 10.1593L1.77727 10.3887L1.89377 10.7567C1.9089 10.8044 1.85458 10.8439 1.8139 10.8147L1.49983 10.5903L1.18577 10.8148C1.14508 10.8439 1.0909 10.8044 1.1059 10.7568L1.2224 10.3887L0.911835 10.1594C0.871647 10.1296 0.892335 10.0659 0.942335 10.0655L1.3284 10.0626L1.45052 9.6963C1.46627 9.64886 1.53327 9.64886 1.54915 9.69624Z" fill="#F5F5F5"/>
<path d="M1.54915 11.6123L1.67127 11.9785L2.05733 11.9815C2.10733 11.9819 2.12802 12.0456 2.08783 12.0753L1.77727 12.3047L1.89377 12.6728C1.9089 12.7204 1.85458 12.7599 1.8139 12.7308L1.49983 12.5063L1.18577 12.7308C1.14508 12.7599 1.0909 12.7205 1.1059 12.6728L1.2224 12.3048L0.911835 12.0754C0.871647 12.0457 0.892335 11.982 0.942335 11.9815L1.3284 11.9786L1.45052 11.6123C1.46627 11.5648 1.53327 11.5648 1.54915 11.6123Z" fill="#F5F5F5"/>
<path d="M1.54915 13.5282L1.67127 13.8945L2.05733 13.8974C2.10733 13.8978 2.12802 13.9616 2.08783 13.9913L1.77727 14.2206L1.89377 14.5887C1.9089 14.6363 1.85458 14.6758 1.8139 14.6467L1.49983 14.4223L1.18577 14.6468C1.14508 14.6758 1.0909 14.6364 1.1059 14.5888L1.2224 14.2207L0.911835 13.9913C0.871647 13.9617 0.892335 13.8979 0.942335 13.8975L1.3284 13.8945L1.45052 13.5283C1.46627 13.4808 1.53327 13.4808 1.54915 13.5282Z" fill="#F5F5F5"/>
<path d="M1.54915 15.4441L1.67127 15.8104L2.05733 15.8133C2.10733 15.8137 2.12802 15.8774 2.08783 15.9072L1.77727 16.1366L1.89377 16.5046C1.9089 16.5522 1.85458 16.5917 1.8139 16.5626L1.49983 16.3382L1.18577 16.5627C1.14508 16.5917 1.0909 16.5523 1.1059 16.5047L1.2224 16.1366L0.911835 15.9072C0.871647 15.8775 0.892335 15.8138 0.942335 15.8134L1.3284 15.8104L1.45052 15.4442C1.46627 15.3967 1.53327 15.3967 1.54915 15.4441Z" fill="#F5F5F5"/>
<path d="M3.03645 8.7198L3.15858 9.08605L3.54464 9.08898C3.59464 9.08942 3.61533 9.15317 3.57514 9.18286L3.26458 9.41223L3.38108 9.7803C3.3962 9.82792 3.34189 9.86742 3.3012 9.8383L2.98714 9.6138L2.67308 9.8383C2.63239 9.86736 2.5782 9.82792 2.5932 9.7803L2.7097 9.41223L2.39914 9.18286C2.35895 9.15311 2.37964 9.08942 2.42964 9.08898L2.8157 9.08605L2.93783 8.7198C2.95358 8.67242 3.02064 8.67242 3.03645 8.7198Z" fill="#F5F5F5"/>
<path d="M3.03645 10.6356L3.15858 11.0019L3.54464 11.0048C3.59464 11.0052 3.61533 11.069 3.57514 11.0987L3.26458 11.328L3.38108 11.6961C3.3962 11.7437 3.34189 11.7832 3.3012 11.7541L2.98714 11.5296L2.67308 11.7541C2.63239 11.7832 2.5782 11.7438 2.5932 11.6961L2.7097 11.328L2.39914 11.0987C2.35895 11.069 2.37964 11.0052 2.42964 11.0048L2.8157 11.0019L2.93783 10.6356C2.95358 10.5882 3.02064 10.5882 3.03645 10.6356Z" fill="#F5F5F5"/>
<path d="M3.03645 12.5515L3.15858 12.9177L3.54464 12.9207C3.59464 12.9211 3.61533 12.9848 3.57514 13.0145L3.26458 13.2439L3.38108 13.612C3.3962 13.6596 3.34189 13.6991 3.3012 13.67L2.98714 13.4455L2.67308 13.67C2.63239 13.699 2.5782 13.6596 2.5932 13.612L2.7097 13.2439L2.39914 13.0145C2.35895 12.9848 2.37964 12.9211 2.42964 12.9207L2.8157 12.9177L2.93783 12.5515C2.95358 12.504 3.02064 12.504 3.03645 12.5515Z" fill="#F5F5F5"/>
<path d="M3.03645 14.4674L3.15858 14.8336L3.54464 14.8366C3.59464 14.837 3.61533 14.9007 3.57514 14.9304L3.26458 15.1598L3.38108 15.5279C3.3962 15.5755 3.34189 15.615 3.3012 15.5859L2.98714 15.3614L2.67308 15.5859C2.63239 15.615 2.5782 15.5755 2.5932 15.5279L2.7097 15.1598L2.39914 14.9304C2.35895 14.9007 2.37964 14.837 2.42964 14.8366L2.8157 14.8336L2.93783 14.4674C2.95358 14.42 3.02064 14.42 3.03645 14.4674Z" fill="#F5F5F5"/>
<path d="M4.52376 7.78045L4.64588 8.1467L5.03194 8.14964C5.08194 8.15008 5.10263 8.21383 5.06244 8.24351L4.75188 8.47283L4.86838 8.84089C4.88351 8.88851 4.82919 8.92801 4.78851 8.89889L4.47444 8.67439L4.16038 8.89889C4.11969 8.92801 4.06551 8.88851 4.08051 8.84089L4.19701 8.47283L3.88644 8.24351C3.84626 8.21376 3.86694 8.15001 3.91694 8.14964L4.30301 8.1467L4.42513 7.78045C4.44088 7.73301 4.50794 7.73301 4.52376 7.78045Z" fill="#F5F5F5"/>
<path d="M4.52376 9.69635L4.64588 10.0626L5.03194 10.0655C5.08194 10.066 5.10263 10.1297 5.06244 10.1594L4.75188 10.3888L4.86838 10.7569C4.88351 10.8045 4.82919 10.844 4.78851 10.8149L4.47444 10.5904L4.16038 10.8149C4.11969 10.8439 4.06551 10.8045 4.08051 10.7569L4.19701 10.3888L3.88644 10.1594C3.84626 10.1297 3.86694 10.066 3.91694 10.0655L4.30301 10.0626L4.42513 9.69635C4.44088 9.64898 4.50794 9.64898 4.52376 9.69635Z" fill="#F5F5F5"/>
<path d="M4.52376 11.6122L4.64588 11.9784L5.03194 11.9814C5.08194 11.9818 5.10263 12.0455 5.06244 12.0752L4.75188 12.3046L4.86838 12.6727C4.88351 12.7203 4.82919 12.7598 4.78851 12.7307L4.47444 12.5062L4.16038 12.7307C4.11969 12.7597 4.06551 12.7204 4.08051 12.6727L4.19701 12.3046L3.88644 12.0752C3.84626 12.0455 3.86694 11.9818 3.91694 11.9814L4.30301 11.9784L4.42513 11.6122C4.44088 11.5647 4.50794 11.5647 4.52376 11.6122Z" fill="#F5F5F5"/>
<path d="M4.52376 13.528L4.64588 13.8943L5.03194 13.8972C5.08194 13.8977 5.10263 13.9614 5.06244 13.9911L4.75188 14.2205L4.86838 14.5885C4.88351 14.6362 4.82919 14.6757 4.78851 14.6465L4.47444 14.422L4.16038 14.6465C4.11969 14.6756 4.06551 14.6362 4.08051 14.5885L4.19701 14.2205L3.88644 13.9911C3.84626 13.9615 3.86694 13.8977 3.91694 13.8972L4.30301 13.8943L4.42513 13.528C4.44088 13.4806 4.50794 13.4806 4.52376 13.528Z" fill="#F5F5F5"/>
<path d="M4.52376 15.4439L4.64588 15.8102L5.03194 15.8131C5.08194 15.8136 5.10263 15.8773 5.06244 15.907L4.75188 16.1364L4.86838 16.5044C4.88351 16.5521 4.82919 16.5916 4.78851 16.5624L4.47444 16.3379L4.16038 16.5624C4.11969 16.5915 4.06551 16.5521 4.08051 16.5044L4.19701 16.1364L3.88644 15.907C3.84626 15.8773 3.86694 15.8136 3.91694 15.8131L4.30301 15.8102L4.42513 15.4439C4.44088 15.3966 4.50794 15.3966 4.52376 15.4439Z" fill="#F5F5F5"/>
<path d="M6.01008 8.7198L6.13221 9.08605L6.51827 9.08898C6.56827 9.08942 6.58896 9.15317 6.54877 9.18286L6.23821 9.41223L6.35471 9.7803C6.36983 9.82792 6.31552 9.86742 6.27483 9.8383L5.96077 9.6138L5.64671 9.8383C5.60602 9.86736 5.55184 9.82792 5.56684 9.7803L5.68333 9.41223L5.37277 9.18286C5.33258 9.15311 5.35327 9.08942 5.40327 9.08898L5.78933 9.08605L5.91146 8.7198C5.92715 8.67242 5.99427 8.67242 6.01008 8.7198Z" fill="#F5F5F5"/>
<path d="M6.01008 10.6356L6.13221 11.0019L6.51827 11.0048C6.56827 11.0052 6.58896 11.069 6.54877 11.0987L6.23821 11.328L6.35471 11.6961C6.36983 11.7437 6.31552 11.7832 6.27483 11.7541L5.96077 11.5296L5.64671 11.7541C5.60602 11.7832 5.55184 11.7438 5.56684 11.6961L5.68333 11.328L5.37277 11.0987C5.33258 11.069 5.35327 11.0052 5.40327 11.0048L5.78933 11.0019L5.91146 10.6356C5.92715 10.5882 5.99427 10.5882 6.01008 10.6356Z" fill="#F5F5F5"/>
<path d="M6.01008 12.5515L6.13221 12.9177L6.51827 12.9207C6.56827 12.9211 6.58896 12.9848 6.54877 13.0145L6.23821 13.2439L6.35471 13.612C6.36983 13.6596 6.31552 13.6991 6.27483 13.67L5.96077 13.4455L5.64671 13.67C5.60602 13.699 5.55184 13.6596 5.56684 13.612L5.68333 13.2439L5.37277 13.0145C5.33258 12.9848 5.35327 12.9211 5.40327 12.9207L5.78933 12.9177L5.91146 12.5515C5.92715 12.504 5.99427 12.504 6.01008 12.5515Z" fill="#F5F5F5"/>
<path d="M6.01008 14.4674L6.13221 14.8336L6.51827 14.8366C6.56827 14.837 6.58896 14.9007 6.54877 14.9304L6.23821 15.1598L6.35471 15.5279C6.36983 15.5755 6.31552 15.615 6.27483 15.5859L5.96077 15.3614L5.64671 15.5859C5.60602 15.615 5.55184 15.5755 5.56684 15.5279L5.68333 15.1598L5.37277 14.9304C5.33258 14.9007 5.35327 14.837 5.40327 14.8366L5.78933 14.8336L5.91146 14.4674C5.92715 14.42 5.99427 14.42 6.01008 14.4674Z" fill="#F5F5F5"/>
<path d="M7.49745 7.78037L7.61958 8.14662L8.00564 8.14956C8.05564 8.15 8.07633 8.21375 8.03614 8.24344L7.72558 8.47275L7.84208 8.84081C7.8572 8.88844 7.80289 8.92794 7.7622 8.89881L7.44808 8.67437L7.13402 8.89887C7.09333 8.928 7.03914 8.8885 7.05414 8.84087L7.17064 8.47281L6.86008 8.2435C6.81989 8.21375 6.84058 8.15 6.89058 8.14962L7.27664 8.14669L7.39877 7.78044C7.41458 7.73294 7.48164 7.73294 7.49745 7.78037Z" fill="#F5F5F5"/>
<path d="M7.49745 9.69635L7.61958 10.0626L8.00564 10.0655C8.05564 10.066 8.07633 10.1297 8.03614 10.1594L7.72558 10.3888L7.84208 10.7569C7.8572 10.8045 7.80289 10.844 7.7622 10.8149L7.44808 10.5904L7.13402 10.8149C7.09333 10.8439 7.03914 10.8045 7.05414 10.7569L7.17064 10.3888L6.86008 10.1594C6.81989 10.1297 6.84058 10.066 6.89058 10.0655L7.27664 10.0626L7.39877 9.69635C7.41458 9.64898 7.48164 9.64898 7.49745 9.69635Z" fill="#F5F5F5"/>
<path d="M7.49745 11.6122L7.61958 11.9785L8.00564 11.9814C8.05564 11.9818 8.07633 12.0455 8.03614 12.0753L7.72558 12.3047L7.84208 12.6727C7.8572 12.7203 7.80289 12.7598 7.7622 12.7307L7.44808 12.5062L7.13402 12.7307C7.09333 12.7597 7.03914 12.7203 7.05414 12.6727L7.17064 12.3046L6.86008 12.0752C6.81989 12.0455 6.84058 11.9818 6.89058 11.9813L7.27664 11.9784L7.39877 11.6122C7.41458 11.5648 7.48164 11.5648 7.49745 11.6122Z" fill="#F5F5F5"/>
<path d="M7.49745 13.528L7.61958 13.8943L8.00564 13.8972C8.05564 13.8977 8.07633 13.9614 8.03614 13.9911L7.72558 14.2205L7.84208 14.5885C7.8572 14.6362 7.80289 14.6757 7.7622 14.6465L7.44808 14.422L7.13402 14.6465C7.09333 14.6756 7.03914 14.6362 7.05414 14.5885L7.17064 14.2205L6.86008 13.9911C6.81989 13.9615 6.84058 13.8977 6.89058 13.8972L7.27664 13.8943L7.39877 13.528C7.41458 13.4806 7.48164 13.4806 7.49745 13.528Z" fill="#F5F5F5"/>
<path d="M7.49745 15.4439L7.61958 15.8102L8.00564 15.8131C8.05564 15.8136 8.07633 15.8773 8.03614 15.907L7.72558 16.1364L7.84208 16.5044C7.8572 16.5521 7.80289 16.5916 7.7622 16.5624L7.44808 16.3379L7.13402 16.5624C7.09333 16.5915 7.03914 16.5521 7.05414 16.5044L7.17064 16.1364L6.86008 15.907C6.81989 15.8773 6.84058 15.8136 6.89058 15.8131L7.27664 15.8102L7.39877 15.4439C7.41458 15.3966 7.48164 15.3966 7.49745 15.4439Z" fill="#F5F5F5"/>
<path d="M8.9847 8.7198L9.10682 9.08605L9.49288 9.08898C9.54288 9.08942 9.56357 9.15317 9.52338 9.18286L9.21282 9.41223L9.32932 9.7803C9.34445 9.82792 9.29013 9.86742 9.24945 9.8383L8.93538 9.6138L8.62132 9.8383C8.58063 9.86736 8.52644 9.82792 8.54144 9.7803L8.65794 9.41223L8.34738 9.18286C8.30719 9.15311 8.32788 9.08942 8.37788 9.08898L8.76395 9.08605L8.88607 8.7198C8.90188 8.67242 8.96888 8.67242 8.9847 8.7198Z" fill="#F5F5F5"/>
<path d="M8.9847 10.6356L9.10682 11.0019L9.49288 11.0048C9.54288 11.0052 9.56357 11.069 9.52338 11.0987L9.21282 11.328L9.32932 11.6961C9.34445 11.7437 9.29013 11.7832 9.24945 11.7541L8.93538 11.5296L8.62132 11.7541C8.58063 11.7832 8.52644 11.7438 8.54144 11.6961L8.65794 11.328L8.34738 11.0987C8.30719 11.069 8.32788 11.0052 8.37788 11.0048L8.76395 11.0019L8.88607 10.6356C8.90188 10.5882 8.96888 10.5882 8.9847 10.6356Z" fill="#F5F5F5"/>
<path d="M8.9847 12.5515L9.10682 12.9177L9.49288 12.9207C9.54288 12.9211 9.56357 12.9848 9.52338 13.0145L9.21282 13.2439L9.32932 13.612C9.34445 13.6596 9.29013 13.6991 9.24945 13.67L8.93538 13.4455L8.62132 13.67C8.58063 13.699 8.52644 13.6596 8.54144 13.612L8.65794 13.2439L8.34738 13.0145C8.30719 12.9848 8.32788 12.9211 8.37788 12.9207L8.76395 12.9177L8.88607 12.5515C8.90188 12.504 8.96888 12.504 8.9847 12.5515Z" fill="#F5F5F5"/>
<path d="M8.9847 14.4674L9.10682 14.8336L9.49288 14.8366C9.54288 14.837 9.56357 14.9007 9.52338 14.9304L9.21282 15.1598L9.32932 15.5279C9.34445 15.5755 9.29013 15.615 9.24945 15.5859L8.93538 15.3614L8.62132 15.5859C8.58063 15.615 8.52644 15.5755 8.54144 15.5279L8.65794 15.1598L8.34738 14.9304C8.30719 14.9007 8.32788 14.837 8.37788 14.8366L8.76395 14.8336L8.88607 14.4674C8.90188 14.42 8.96888 14.42 8.9847 14.4674Z" fill="#F5F5F5"/>
<path d="M10.472 7.78045L10.5941 8.1467L10.9802 8.14964C11.0302 8.15008 11.0509 8.21383 11.0107 8.24351L10.7001 8.47283L10.8166 8.84089C10.8317 8.88851 10.7774 8.92801 10.7367 8.89889L10.4227 8.67439L10.1086 8.89889C10.0679 8.92801 10.0137 8.88851 10.0287 8.84089L10.1452 8.47283L9.83469 8.24351C9.7945 8.21376 9.81519 8.15001 9.86519 8.14964L10.2512 8.1467L10.3734 7.78045C10.3891 7.73301 10.4562 7.73301 10.472 7.78045Z" fill="#F5F5F5"/>
<path d="M10.472 9.69635L10.5941 10.0626L10.9802 10.0655C11.0302 10.066 11.0509 10.1297 11.0107 10.1594L10.7001 10.3888L10.8166 10.7569C10.8317 10.8045 10.7774 10.844 10.7367 10.8149L10.4227 10.5904L10.1086 10.8149C10.0679 10.8439 10.0137 10.8045 10.0287 10.7569L10.1452 10.3888L9.83469 10.1594C9.7945 10.1297 9.81519 10.066 9.86519 10.0655L10.2512 10.0626L10.3734 9.69635C10.3891 9.64898 10.4562 9.64898 10.472 9.69635Z" fill="#F5F5F5"/>
<path d="M10.472 11.6122L10.5941 11.9784L10.9802 11.9814C11.0302 11.9818 11.0509 12.0455 11.0107 12.0752L10.7001 12.3046L10.8166 12.6727C10.8317 12.7203 10.7774 12.7598 10.7367 12.7307L10.4227 12.5062L10.1086 12.7307C10.0679 12.7597 10.0137 12.7204 10.0287 12.6727L10.1452 12.3046L9.83469 12.0752C9.7945 12.0455 9.81519 11.9818 9.86519 11.9814L10.2512 11.9784L10.3734 11.6122C10.3891 11.5647 10.4562 11.5647 10.472 11.6122Z" fill="#F5F5F5"/>
<path d="M10.472 13.528L10.5941 13.8943L10.9802 13.8972C11.0302 13.8977 11.0509 13.9614 11.0107 13.9911L10.7001 14.2205L10.8166 14.5885C10.8317 14.6362 10.7774 14.6757 10.7367 14.6465L10.4227 14.422L10.1086 14.6465C10.0679 14.6756 10.0137 14.6362 10.0287 14.5885L10.1452 14.2205L9.83469 13.9911C9.7945 13.9615 9.81519 13.8977 9.86519 13.8972L10.2512 13.8943L10.3734 13.528C10.3891 13.4806 10.4562 13.4806 10.472 13.528Z" fill="#F5F5F5"/>
<path d="M10.472 15.4439L10.5941 15.8102L10.9802 15.8131C11.0302 15.8136 11.0509 15.8773 11.0107 15.907L10.7001 16.1364L10.8166 16.5044C10.8317 16.5521 10.7774 16.5916 10.7367 16.5624L10.4227 16.3379L10.1086 16.5624C10.0679 16.5915 10.0137 16.5521 10.0287 16.5044L10.1452 16.1364L9.83469 15.907C9.7945 15.8773 9.81519 15.8136 9.86519 15.8131L10.2512 15.8102L10.3734 15.4439C10.3891 15.3966 10.4562 15.3966 10.472 15.4439Z" fill="#F5F5F5"/>
<path d="M11.9583 8.7198L12.0805 9.08605L12.4665 9.08898C12.5165 9.08942 12.5372 9.15317 12.497 9.18286L12.1865 9.41223L12.303 9.7803C12.3181 9.82792 12.2638 9.86742 12.2231 9.8383L11.909 9.6138L11.595 9.8383C11.5543 9.86736 11.5001 9.82792 11.5151 9.7803L11.6316 9.41223L11.321 9.18286C11.2808 9.15311 11.3015 9.08942 11.3515 9.08898L11.7376 9.08605L11.8597 8.7198C11.8755 8.67242 11.9425 8.67242 11.9583 8.7198Z" fill="#F5F5F5"/>
<path d="M11.9583 10.6356L12.0805 11.0019L12.4665 11.0048C12.5165 11.0052 12.5372 11.069 12.497 11.0987L12.1865 11.328L12.303 11.6961C12.3181 11.7437 12.2638 11.7832 12.2231 11.7541L11.909 11.5296L11.595 11.7541C11.5543 11.7832 11.5001 11.7438 11.5151 11.6961L11.6316 11.328L11.321 11.0987C11.2808 11.069 11.3015 11.0052 11.3515 11.0048L11.7376 11.0019L11.8597 10.6356C11.8755 10.5882 11.9425 10.5882 11.9583 10.6356Z" fill="#F5F5F5"/>
<path d="M11.9583 12.5515L12.0805 12.9177L12.4665 12.9207C12.5165 12.9211 12.5372 12.9848 12.497 13.0145L12.1865 13.2439L12.303 13.612C12.3181 13.6596 12.2638 13.6991 12.2231 13.67L11.909 13.4455L11.595 13.67C11.5543 13.699 11.5001 13.6596 11.5151 13.612L11.6316 13.2439L11.321 13.0145C11.2808 12.9848 11.3015 12.9211 11.3515 12.9207L11.7376 12.9177L11.8597 12.5515C11.8755 12.504 11.9425 12.504 11.9583 12.5515Z" fill="#F5F5F5"/>
<path d="M11.9583 14.4674L12.0805 14.8336L12.4665 14.8366C12.5165 14.837 12.5372 14.9007 12.497 14.9304L12.1865 15.1598L12.303 15.5279C12.3181 15.5755 12.2638 15.615 12.2231 15.5859L11.909 15.3614L11.595 15.5859C11.5543 15.615 11.5001 15.5755 11.5151 15.5279L11.6316 15.1598L11.321 14.9304C11.2808 14.9007 11.3015 14.837 11.3515 14.8366L11.7376 14.8336L11.8597 14.4674C11.8755 14.42 11.9425 14.42 11.9583 14.4674Z" fill="#F5F5F5"/>
<path d="M13.4456 7.78045L13.5678 8.1467L13.9538 8.14964C14.0038 8.15008 14.0245 8.21383 13.9843 8.24351L13.6738 8.47283L13.7903 8.84089C13.8054 8.88851 13.7511 8.92801 13.7104 8.89889L13.3963 8.67439L13.0823 8.89889C13.0416 8.92801 12.9874 8.88851 13.0024 8.84089L13.1189 8.47283L12.8083 8.24351C12.7681 8.21376 12.7888 8.15001 12.8388 8.14964L13.2249 8.1467L13.347 7.78045C13.3628 7.73301 13.4298 7.73301 13.4456 7.78045Z" fill="#F5F5F5"/>
<path d="M13.4456 9.69635L13.5678 10.0626L13.9538 10.0655C14.0038 10.066 14.0245 10.1297 13.9843 10.1594L13.6738 10.3888L13.7903 10.7569C13.8054 10.8045 13.7511 10.844 13.7104 10.8149L13.3963 10.5904L13.0823 10.8149C13.0416 10.8439 12.9874 10.8045 13.0024 10.7569L13.1189 10.3888L12.8083 10.1594C12.7681 10.1297 12.7888 10.066 12.8388 10.0655L13.2249 10.0626L13.347 9.69635C13.3628 9.64898 13.4298 9.64898 13.4456 9.69635Z" fill="#F5F5F5"/>
<path d="M13.4456 11.6122L13.5678 11.9784L13.9538 11.9814C14.0038 11.9818 14.0245 12.0455 13.9843 12.0752L13.6738 12.3046L13.7903 12.6727C13.8054 12.7203 13.7511 12.7598 13.7104 12.7307L13.3963 12.5062L13.0823 12.7307C13.0416 12.7597 12.9874 12.7204 13.0024 12.6727L13.1189 12.3046L12.8083 12.0752C12.7681 12.0455 12.7888 11.9818 12.8388 11.9814L13.2249 11.9784L13.347 11.6122C13.3628 11.5647 13.4298 11.5647 13.4456 11.6122Z" fill="#F5F5F5"/>
<path d="M13.4456 13.528L13.5678 13.8943L13.9538 13.8972C14.0038 13.8977 14.0245 13.9614 13.9843 13.9911L13.6738 14.2205L13.7903 14.5885C13.8054 14.6362 13.7511 14.6757 13.7104 14.6465L13.3963 14.422L13.0823 14.6465C13.0416 14.6756 12.9874 14.6362 13.0024 14.5885L13.1189 14.2205L12.8083 13.9911C12.7681 13.9615 12.7888 13.8977 12.8388 13.8972L13.2249 13.8943L13.347 13.528C13.3628 13.4806 13.4298 13.4806 13.4456 13.528Z" fill="#F5F5F5"/>
<path d="M13.4456 15.4439L13.5678 15.8102L13.9538 15.8131C14.0038 15.8136 14.0245 15.8773 13.9843 15.907L13.6738 16.1364L13.7903 16.5044C13.8054 16.5521 13.7511 16.5916 13.7104 16.5624L13.3963 16.3379L13.0823 16.5624C13.0416 16.5915 12.9874 16.5521 13.0024 16.5044L13.1189 16.1364L12.8083 15.907C12.7681 15.8773 12.7888 15.8136 12.8388 15.8131L13.2249 15.8102L13.347 15.4439C13.3628 15.3966 13.4298 15.3966 13.4456 15.4439Z" fill="#F5F5F5"/>
</svg>
